<?xml version="1.0" encoding="UTF-8" standalone="no"?>
<!-- Created with Inkscape (http://www.inkscape.org/) -->

<svg
   width="105.56874mm"
   height="39.6875mm"
   viewBox="0 0 105.56874 39.6875"
   version="1.1"
   id="svg1"
   xml:space="preserve"
   xmlns:inkscape="http://www.inkscape.org/namespaces/inkscape"
   xmlns:sodipodi="http://sodipodi.sourceforge.net/DTD/sodipodi-0.dtd"
   xmlns="http://www.w3.org/2000/svg"
   xmlns:svg="http://www.w3.org/2000/svg"><sodipodi:namedview
     id="namedview1"
     pagecolor="#ffffff"
     bordercolor="#666666"
     borderopacity="1.0"
     inkscape:showpageshadow="2"
     inkscape:pageopacity="0.0"
     inkscape:pagecheckerboard="0"
     inkscape:deskcolor="#d1d1d1"
     inkscape:document-units="mm" /><defs
     id="defs1" /><g
     inkscape:label="Layer 1"
     inkscape:groupmode="layer"
     id="layer1"
     transform="translate(-33.171429,-180.25714)"><rect
       style="font-variation-settings:'wght' 600;fill:#ffffff;stroke:#000000;stroke-width:0;stroke-linejoin:round;stroke-dasharray:none;stroke-opacity:1;paint-order:markers stroke fill"
       id="rect3"
       width="105.56875"
       height="39.6875"
       x="33.171429"
       y="180.25714"
       inkscape:export-filename="Guage.svg"
       inkscape:export-xdpi="96"
       inkscape:export-ydpi="96" /><text
       xml:space="preserve"
       style="font-style:normal;font-variant:normal;font-weight:600;font-stretch:normal;font-size:5.64444px;line-height:1.25;font-family:'Segoe UI';-inkscape-font-specification:'Segoe UI, Semi-Bold';font-variant-ligatures:normal;font-variant-caps:normal;font-variant-numeric:normal;font-variant-east-asian:normal;fill:#4d4d4d;fill-opacity:1;stroke:none;stroke-width:0.264583"
       x="71.587875"
       y="217.43393"
       id="text1-1"
       inkscape:export-filename="Guage.png"
       inkscape:export-xdpi="96"
       inkscape:export-ydpi="96"><tspan
         sodipodi:role="line"
         id="tspan1-5"
         style="font-style:normal;font-variant:normal;font-weight:600;font-stretch:normal;font-size:5.64444px;font-family:'Segoe UI';-inkscape-font-specification:'Segoe UI, Semi-Bold';font-variant-ligatures:normal;font-variant-caps:normal;font-variant-numeric:normal;font-variant-east-asian:normal;fill:#4d4d4d;stroke-width:0.264583"
         x="71.587875"
         y="217.43393">Measures</tspan></text><g
       id="g16"
       transform="translate(46.044678,54.534006)"><path
         id="path4"
         style="fill:#ff0000;stroke-width:0.826823"
         d="m 39.883367,139.86954 c -0.91201,0 -1.65364,0.74167 -1.65364,1.65365 0,0.91198 0.74163,1.65365 1.65364,1.65365 0.91201,0 1.65365,-0.74167 1.65365,-1.65365 0,-0.91198 -0.74164,-1.65365 -1.65365,-1.65365 z m 8.74753,-7.95403 c 0.21147,0 0.42294,0.0808 0.58459,0.24246 0.3233,0.32245 0.3233,0.84582 0,1.1691 l -6.49669,6.49543 0.0722,0.12539 c 0.25484,0.46859 0.39969,1.00531 0.39969,1.5753 0,1.82397 -1.48327,3.30729 -3.30729,3.30729 -1.82402,0 -3.307293,-1.48332 -3.307293,-3.30729 0,-1.82397 1.483273,-3.30729 3.307293,-3.30729 0.57,0 1.10673,0.14485 1.57532,0.39969 l 0.0817,0.047 6.50591,-6.50465 c 0.16166,-0.16164 0.37312,-0.24246 0.58459,-0.24246 z" /><path
         id="path1"
         style="stroke-width:0.826823"
         d="m 49.006179,140.7713 c 0.45641,0 0.82682,0.37042 0.82682,0.82683 0,0.4564 -0.37041,0.82682 -0.82682,0.82682 -0.45641,0 -0.82682,-0.37042 -0.82682,-0.82682 0,-0.45641 0.37041,-0.82683 0.82682,-0.82683 z m -18.1901,0 c 0.4564,0 0.82682,0.37042 0.82682,0.82683 0,0.4564 -0.37042,0.82682 -0.82682,0.82682 -0.45641,0 -0.82683,-0.37042 -0.82683,-0.82682 0,-0.45641 0.37042,-0.82683 0.82683,-0.82683 z m 17.01516,-3.93981 c 0.45641,0 0.82683,0.37042 0.82683,0.82683 0,0.4564 -0.37042,0.82682 -0.82683,0.82682 -0.4564,0 -0.82682,-0.37042 -0.82682,-0.82682 0,-0.45641 0.37042,-0.82683 0.82682,-0.82683 z m -15.36152,-0.1943 c 0.45641,0 0.82682,0.37042 0.82682,0.82682 0,0.45641 -0.37041,0.82682 -0.82682,0.82682 -0.45641,0 -0.82682,-0.37041 -0.82682,-0.82682 0,-0.4564 0.37041,-0.82682 0.82682,-0.82682 z m 2.48047,-3.30729 c 0.45641,0 0.82682,0.37041 0.82682,0.82682 0,0.45641 -0.37041,0.82682 -0.82682,0.82682 -0.45641,0 -0.82682,-0.37041 -0.82682,-0.82682 0,-0.45641 0.37041,-0.82682 0.82682,-0.82682 z m 9.53825,-0.51263 c 0.4564,0 0.82682,0.37042 0.82682,0.82683 0,0.4564 -0.37042,0.82682 -0.82682,0.82682 -0.45641,0 -0.82683,-0.37042 -0.82683,-0.82682 0,-0.45641 0.37042,-0.82683 0.82683,-0.82683 z m -4.57731,-1.14102 c 0.4564,0 0.82682,0.37042 0.82682,0.82682 0,0.45641 -0.37042,0.82683 -0.82682,0.82683 -0.45641,0 -0.82683,-0.37042 -0.82683,-0.82683 0,-0.4564 0.37042,-0.82682 0.82683,-0.82682 z m 0,-3.30728 c 2.15635,0 4.29617,0.53082 6.18959,1.53458 0.40349,0.21415 0.55728,0.71437 0.34313,1.11786 -0.21332,0.40349 -0.71437,0.55728 -1.11786,0.34313 -1.6553,-0.87808 -3.52805,-1.34193 -5.41486,-1.34193 -6.38308,0 -11.57552,5.19245 -11.57552,11.57552 0,6.38307 5.19244,11.57552 11.57552,11.57552 6.38307,0 11.57552,-5.19245 11.57552,-11.57552 0,-1.87771 -0.45972,-3.74137 -1.32871,-5.38923 -0.21332,-0.40432 -0.0587,-0.90454 0.34562,-1.11704 0.40514,-0.21332 0.90289,-0.0579 1.11703,0.34479 0.99384,1.88515 1.5197,4.01505 1.5197,6.16148 0,7.29423 -5.93493,13.22917 -13.22916,13.22917 -7.29423,0 -13.229169,-5.93494 -13.229169,-13.22917 0,-7.29423 5.934939,-13.22916 13.229169,-13.22916 z" /></g></g></svg>
