<?xml version="1.0" encoding="UTF-8" standalone="no"?>
<!-- Created with Inkscape (http://www.inkscape.org/) -->

<svg
   width="79.374992mm"
   height="39.6875mm"
   viewBox="0 0 79.374992 39.6875"
   version="1.1"
   id="svg1"
   xml:space="preserve"
   xmlns:inkscape="http://www.inkscape.org/namespaces/inkscape"
   xmlns:sodipodi="http://sodipodi.sourceforge.net/DTD/sodipodi-0.dtd"
   xmlns="http://www.w3.org/2000/svg"
   xmlns:svg="http://www.w3.org/2000/svg"><sodipodi:namedview
     id="namedview1"
     pagecolor="#ffffff"
     bordercolor="#666666"
     borderopacity="1.0"
     inkscape:showpageshadow="2"
     inkscape:pageopacity="0.0"
     inkscape:pagecheckerboard="0"
     inkscape:deskcolor="#d1d1d1"
     inkscape:document-units="mm" /><defs
     id="defs1" /><g
     inkscape:label="Layer 1"
     inkscape:groupmode="layer"
     id="layer1"
     transform="translate(-33.171429,-180.25714)"><rect
       style="font-variation-settings:'wght' 600;fill:#ffffff;stroke:#000000;stroke-width:0;stroke-linejoin:round;stroke-dasharray:none;stroke-opacity:1;paint-order:markers stroke fill"
       id="rect3"
       width="79.375"
       height="39.6875"
       x="33.171429"
       y="180.25714"
       inkscape:export-filename="Guage.svg"
       inkscape:export-xdpi="96"
       inkscape:export-ydpi="96" /><path
       d="m 65.261812,217.43393 h -0.650433 v -2.55764 q 0,-0.31419 0.03858,-0.76894 h -0.01103 q -0.06063,0.25907 -0.107487,0.37207 l -1.179599,2.95451 h -0.451997 l -1.182355,-2.93246 q -0.04961,-0.12954 -0.104731,-0.39412 h -0.01102 q 0.02205,0.23702 0.02205,0.77445 v 2.55213 h -0.606336 v -3.95221 h 0.923285 l 1.03904,2.63205 q 0.118511,0.30317 0.15434,0.452 h 0.01378 q 0.101975,-0.31144 0.165365,-0.46302 l 1.058332,-2.62103 h 0.890212 z m 3.290753,-1.23748 h -1.92374 q 0.01102,0.39136 0.239778,0.60358 0.23151,0.21222 0.633897,0.21222 0.451997,0 0.829579,-0.2701 v 0.51539 q -0.385851,0.24254 -1.019748,0.24254 -0.622873,0 -0.978406,-0.3831 -0.352778,-0.38585 -0.352778,-1.08314 0,-0.6587 0.388607,-1.07211 0.391362,-0.41617 0.970138,-0.41617 0.578776,0 0.895724,0.37207 0.316949,0.37207 0.316949,1.03353 z m -0.617361,-0.45199 q -0.0028,-0.34451 -0.162608,-0.53468 -0.159853,-0.19293 -0.440972,-0.19293 -0.275608,0 -0.468533,0.2012 -0.190169,0.20119 -0.234266,0.52641 z m 3.392728,1.68947 h -0.620117 v -0.44097 h -0.01102 q -0.292144,0.50712 -0.857139,0.50712 -0.416168,0 -0.65319,-0.226 -0.234266,-0.226 -0.234266,-0.59807 0,-0.79926 0.920528,-0.93155 l 0.837847,-0.11852 q 0,-0.60358 -0.573263,-0.60358 -0.504362,0 -0.909505,0.34727 v -0.55948 q 0.446484,-0.26459 1.030772,-0.26459 1.069357,0 1.069357,1.05282 z m -0.617361,-1.38631 -0.592556,0.0827 q -0.275607,0.0358 -0.416167,0.13504 -0.137804,0.0965 -0.137804,0.34176 0,0.17914 0.12678,0.2949 0.129535,0.113 0.344509,0.113 0.292144,0 0.482313,-0.20395 0.192925,-0.20671 0.192925,-0.51815 z m 1.220941,1.29812 v -0.59256 q 0.358289,0.27285 0.790993,0.27285 0.578776,0 0.578776,-0.34175 0,-0.0965 -0.04961,-0.16261 -0.04961,-0.0689 -0.135047,-0.12127 -0.08268,-0.0524 -0.198438,-0.0937 -0.112999,-0.0413 -0.253558,-0.0937 -0.173633,-0.0689 -0.314193,-0.14607 -0.137804,-0.0772 -0.23151,-0.17364 -0.09095,-0.0992 -0.137804,-0.22324 -0.04685,-0.12402 -0.04685,-0.28939 0,-0.20395 0.09646,-0.35829 0.09646,-0.15709 0.259071,-0.26182 0.162609,-0.10749 0.369314,-0.15985 0.206706,-0.0551 0.427192,-0.0551 0.391363,0 0.700043,0.11851 v 0.55949 q -0.297656,-0.20395 -0.683507,-0.20395 -0.121267,0 -0.220486,0.0248 -0.09646,0.0248 -0.165364,0.0689 -0.0689,0.0441 -0.107487,0.10749 -0.03858,0.0606 -0.03858,0.13505 0,0.0909 0.03858,0.15434 0.03858,0.0634 0.112999,0.113 0.07717,0.0469 0.181901,0.0882 0.107487,0.0386 0.245291,0.0854 0.181901,0.0744 0.325216,0.15159 0.146072,0.0772 0.248047,0.17638 0.101975,0.0965 0.157096,0.226 0.05512,0.12678 0.05512,0.30317 0,0.21497 -0.09922,0.37483 -0.09922,0.15985 -0.264583,0.26458 -0.165364,0.10473 -0.383094,0.15434 -0.214974,0.0524 -0.454753,0.0524 -0.46302,0 -0.802017,-0.15434 z m 5.071177,0.0882 h -0.63941 v -0.44648 h -0.01102 q -0.278363,0.51263 -0.865407,0.51263 -1.000455,0 -1.000455,-1.20165 v -1.68672 h 0.639409 v 1.62057 q 0,0.76068 0.587044,0.76068 0.283876,0 0.465776,-0.20946 0.184657,-0.20947 0.184657,-0.54846 v -1.62333 h 0.63941 z m 2.469442,-2.21313 q -0.115755,-0.0909 -0.333485,-0.0909 -0.283876,0 -0.474045,0.25632 -0.190169,0.25631 -0.190169,0.69728 v 1.35048 h -0.639409 v -2.82222 h 0.639409 v 0.58153 h 0.01102 q 0.09371,-0.29765 0.286632,-0.46302 0.195681,-0.16812 0.43546,-0.16812 0.173633,0 0.264583,0.0524 z m 2.791904,0.97565 h -1.92374 q 0.01102,0.39136 0.239778,0.60358 0.231511,0.21222 0.633897,0.21222 0.451997,0 0.829579,-0.2701 v 0.51539 q -0.385851,0.24254 -1.019748,0.24254 -0.622872,0 -0.978406,-0.3831 -0.352778,-0.38585 -0.352778,-1.08314 0,-0.6587 0.388607,-1.07211 0.391362,-0.41617 0.970138,-0.41617 0.578776,0 0.895724,0.37207 0.316949,0.37207 0.316949,1.03353 z m -0.617361,-0.45199 q -0.0028,-0.34451 -0.162608,-0.53468 -0.159853,-0.19293 -0.440972,-0.19293 -0.275608,0 -0.468533,0.2012 -0.190169,0.20119 -0.234266,0.52641 z m 1.050063,1.60128 v -0.59256 q 0.35829,0.27285 0.790994,0.27285 0.578775,0 0.578775,-0.34175 0,-0.0965 -0.04961,-0.16261 -0.04961,-0.0689 -0.135048,-0.12127 -0.08268,-0.0524 -0.198437,-0.0937 -0.112999,-0.0413 -0.253559,-0.0937 -0.173633,-0.0689 -0.314192,-0.14607 -0.137804,-0.0772 -0.231511,-0.17364 -0.09095,-0.0992 -0.137803,-0.22324 -0.04685,-0.12402 -0.04685,-0.28939 0,-0.20395 0.09646,-0.35829 0.09646,-0.15709 0.259071,-0.26182 0.162608,-0.10749 0.369314,-0.15985 0.206705,-0.0551 0.427191,-0.0551 0.391363,0 0.700043,0.11851 v 0.55949 q -0.297656,-0.20395 -0.683506,-0.20395 -0.121267,0 -0.220486,0.0248 -0.09646,0.0248 -0.165365,0.0689 -0.0689,0.0441 -0.107486,0.10749 -0.03859,0.0606 -0.03859,0.13505 0,0.0909 0.03859,0.15434 0.03859,0.0634 0.112999,0.113 0.07717,0.0469 0.1819,0.0882 0.107487,0.0386 0.245291,0.0854 0.181901,0.0744 0.325217,0.15159 0.146072,0.0772 0.248047,0.17638 0.101974,0.0965 0.157096,0.226 0.05512,0.12678 0.05512,0.30317 0,0.21497 -0.09922,0.37483 -0.09922,0.15985 -0.264584,0.26458 -0.165364,0.10473 -0.383094,0.15434 -0.214974,0.0524 -0.454752,0.0524 -0.463021,0 -0.802018,-0.15434 z"
       id="text1-1"
       style="font-weight:600;font-size:5.64444px;line-height:1.25;font-family:'Segoe UI';-inkscape-font-specification:'Segoe UI, Semi-Bold';fill:#4d4d4d;stroke-width:0.264583"
       aria-label="Measures" /><g
       id="g16"
       transform="translate(32.947804,54.534006)"><path
         id="path4"
         style="fill:#ff0000;stroke-width:0.826823"
         d="m 39.883367,139.86954 c -0.91201,0 -1.65364,0.74167 -1.65364,1.65365 0,0.91198 0.74163,1.65365 1.65364,1.65365 0.91201,0 1.65365,-0.74167 1.65365,-1.65365 0,-0.91198 -0.74164,-1.65365 -1.65365,-1.65365 z m 8.74753,-7.95403 c 0.21147,0 0.42294,0.0808 0.58459,0.24246 0.3233,0.32245 0.3233,0.84582 0,1.1691 l -6.49669,6.49543 0.0722,0.12539 c 0.25484,0.46859 0.39969,1.00531 0.39969,1.5753 0,1.82397 -1.48327,3.30729 -3.30729,3.30729 -1.82402,0 -3.307293,-1.48332 -3.307293,-3.30729 0,-1.82397 1.483273,-3.30729 3.307293,-3.30729 0.57,0 1.10673,0.14485 1.57532,0.39969 l 0.0817,0.047 6.50591,-6.50465 c 0.16166,-0.16164 0.37312,-0.24246 0.58459,-0.24246 z" /><path
         id="path1"
         style="stroke-width:0.826823"
         d="m 49.006179,140.7713 c 0.45641,0 0.82682,0.37042 0.82682,0.82683 0,0.4564 -0.37041,0.82682 -0.82682,0.82682 -0.45641,0 -0.82682,-0.37042 -0.82682,-0.82682 0,-0.45641 0.37041,-0.82683 0.82682,-0.82683 z m -18.1901,0 c 0.4564,0 0.82682,0.37042 0.82682,0.82683 0,0.4564 -0.37042,0.82682 -0.82682,0.82682 -0.45641,0 -0.82683,-0.37042 -0.82683,-0.82682 0,-0.45641 0.37042,-0.82683 0.82683,-0.82683 z m 17.01516,-3.93981 c 0.45641,0 0.82683,0.37042 0.82683,0.82683 0,0.4564 -0.37042,0.82682 -0.82683,0.82682 -0.4564,0 -0.82682,-0.37042 -0.82682,-0.82682 0,-0.45641 0.37042,-0.82683 0.82682,-0.82683 z m -15.36152,-0.1943 c 0.45641,0 0.82682,0.37042 0.82682,0.82682 0,0.45641 -0.37041,0.82682 -0.82682,0.82682 -0.45641,0 -0.82682,-0.37041 -0.82682,-0.82682 0,-0.4564 0.37041,-0.82682 0.82682,-0.82682 z m 2.48047,-3.30729 c 0.45641,0 0.82682,0.37041 0.82682,0.82682 0,0.45641 -0.37041,0.82682 -0.82682,0.82682 -0.45641,0 -0.82682,-0.37041 -0.82682,-0.82682 0,-0.45641 0.37041,-0.82682 0.82682,-0.82682 z m 9.53825,-0.51263 c 0.4564,0 0.82682,0.37042 0.82682,0.82683 0,0.4564 -0.37042,0.82682 -0.82682,0.82682 -0.45641,0 -0.82683,-0.37042 -0.82683,-0.82682 0,-0.45641 0.37042,-0.82683 0.82683,-0.82683 z m -4.57731,-1.14102 c 0.4564,0 0.82682,0.37042 0.82682,0.82682 0,0.45641 -0.37042,0.82683 -0.82682,0.82683 -0.45641,0 -0.82683,-0.37042 -0.82683,-0.82683 0,-0.4564 0.37042,-0.82682 0.82683,-0.82682 z m 0,-3.30728 c 2.15635,0 4.29617,0.53082 6.18959,1.53458 0.40349,0.21415 0.55728,0.71437 0.34313,1.11786 -0.21332,0.40349 -0.71437,0.55728 -1.11786,0.34313 -1.6553,-0.87808 -3.52805,-1.34193 -5.41486,-1.34193 -6.38308,0 -11.57552,5.19245 -11.57552,11.57552 0,6.38307 5.19244,11.57552 11.57552,11.57552 6.38307,0 11.57552,-5.19245 11.57552,-11.57552 0,-1.87771 -0.45972,-3.74137 -1.32871,-5.38923 -0.21332,-0.40432 -0.0587,-0.90454 0.34562,-1.11704 0.40514,-0.21332 0.90289,-0.0579 1.11703,0.34479 0.99384,1.88515 1.5197,4.01505 1.5197,6.16148 0,7.29423 -5.93493,13.22917 -13.22916,13.22917 -7.29423,0 -13.229169,-5.93494 -13.229169,-13.22917 0,-7.29423 5.934939,-13.22916 13.229169,-13.22916 z" /></g></g></svg>
