<?xml version="1.0" encoding="UTF-8" standalone="no"?>
<!-- Created with Inkscape (http://www.inkscape.org/) -->

<svg
   width="105.56874mm"
   height="39.6875mm"
   viewBox="0 0 105.56874 39.6875"
   version="1.1"
   id="svg1"
   xml:space="preserve"
   inkscape:export-filename=".\Guage.svg"
   inkscape:export-xdpi="96"
   inkscape:export-ydpi="96"
   xmlns:inkscape="http://www.inkscape.org/namespaces/inkscape"
   xmlns:sodipodi="http://sodipodi.sourceforge.net/DTD/sodipodi-0.dtd"
   xmlns="http://www.w3.org/2000/svg"
   xmlns:svg="http://www.w3.org/2000/svg"><sodipodi:namedview
     id="namedview1"
     pagecolor="#ffffff"
     bordercolor="#666666"
     borderopacity="1.0"
     inkscape:showpageshadow="2"
     inkscape:pageopacity="0.0"
     inkscape:pagecheckerboard="0"
     inkscape:deskcolor="#d1d1d1"
     inkscape:document-units="mm" /><defs
     id="defs1" /><g
     inkscape:label="Layer 1"
     inkscape:groupmode="layer"
     id="layer1"
     transform="translate(-33.171429,-180.25714)"><rect
       style="font-variation-settings:'wght' 600;fill:#ffffff;stroke:#000000;stroke-width:0;stroke-linejoin:round;stroke-dasharray:none;stroke-opacity:1;paint-order:markers stroke fill"
       id="rect3"
       width="105.56875"
       height="39.6875"
       x="33.171429"
       y="180.25714"
       inkscape:export-filename="Guage.svg"
       inkscape:export-xdpi="96"
       inkscape:export-ydpi="96" /><path
       d="m 76.543297,217.43393 h -0.879188 v -2.36471 q 0,-0.3831 0.03307,-0.84612 h -0.02205 q -0.0689,0.3638 -0.124024,0.52366 l -0.926041,2.68717 h -0.727603 l -0.942578,-2.65961 q -0.03858,-0.10749 -0.124023,-0.55122 h -0.02481 q 0.03583,0.58429 0.03583,1.02526 v 2.18557 h -0.802017 v -3.95221 h 1.303623 l 0.807529,2.34266 q 0.09646,0.28112 0.14056,0.565 h 0.01654 q 0.07441,-0.32798 0.157096,-0.57051 l 0.80753,-2.33715 h 1.27055 z m 3.34863,-1.16306 H 78.05087 q 0.0441,0.6146 0.774456,0.6146 0.465777,0 0.818554,-0.22049 v 0.62839 q -0.391362,0.20946 -1.016991,0.20946 -0.683506,0 -1.061089,-0.37758 -0.377582,-0.38034 -0.377582,-1.05833 0,-0.7028 0.407899,-1.11346 0.407899,-0.41065 1.003211,-0.41065 0.617361,0 0.953602,0.36656 0.338997,0.36655 0.338997,0.99494 z m -0.80753,-0.53468 q 0,-0.60634 -0.490581,-0.60634 -0.209461,0 -0.363802,0.17363 -0.151584,0.17364 -0.184657,0.43271 z m 3.673848,1.69774 h -0.824067 v -0.40514 h -0.01102 q -0.283876,0.47404 -0.840603,0.47404 -0.410655,0 -0.647677,-0.23151 -0.234266,-0.23427 -0.234266,-0.62287 0,-0.82131 0.972894,-0.94809 l 0.766189,-0.10198 q 0,-0.46302 -0.501606,-0.46302 -0.504362,0 -0.959114,0.30042 v -0.65595 q 0.181901,-0.0937 0.496094,-0.16536 0.316948,-0.0717 0.576019,-0.0717 1.207161,0 1.207161,1.2044 z m -0.818554,-1.14653 v -0.19017 l -0.51263,0.0661 q -0.424436,0.0551 -0.424436,0.38309 0,0.14883 0.101975,0.24529 0.104731,0.0937 0.28112,0.0937 0.24529,0 0.39963,-0.16812 0.154341,-0.17088 0.154341,-0.42995 z m 1.322915,1.07212 v -0.70556 q 0.214973,0.12954 0.427191,0.19293 0.214974,0.0634 0.405143,0.0634 0.23151,0 0.363802,-0.0634 0.135047,-0.0634 0.135047,-0.19293 0,-0.0827 -0.06063,-0.1378 -0.06063,-0.0551 -0.157096,-0.0965 -0.09371,-0.0413 -0.206706,-0.0744 -0.112999,-0.0331 -0.21773,-0.0744 -0.16812,-0.0634 -0.297656,-0.13505 -0.126779,-0.0744 -0.214974,-0.17088 -0.08544,-0.0965 -0.132291,-0.22324 -0.0441,-0.12678 -0.0441,-0.30041 0,-0.23702 0.101974,-0.4079 0.104731,-0.17088 0.275608,-0.27836 0.173632,-0.11025 0.394118,-0.15986 0.223242,-0.0524 0.463021,-0.0524 0.187413,0 0.380338,0.0303 0.192925,0.0276 0.380338,0.0827 v 0.67248 q -0.165364,-0.0965 -0.355533,-0.14332 -0.187413,-0.0496 -0.369314,-0.0496 -0.08544,0 -0.162609,0.0165 -0.07441,0.0138 -0.132291,0.0441 -0.05788,0.0276 -0.09095,0.0744 -0.03307,0.0441 -0.03307,0.10198 0,0.0772 0.04961,0.13229 0.04961,0.0551 0.129535,0.0965 0.07993,0.0386 0.176389,0.0717 0.09922,0.0303 0.195681,0.0634 0.173633,0.0606 0.314193,0.13229 0.14056,0.0717 0.239778,0.16812 0.101975,0.0965 0.154341,0.226 0.05512,0.12953 0.05512,0.30868 0,0.2508 -0.110243,0.42995 -0.107487,0.17638 -0.289388,0.28938 -0.179145,0.11025 -0.416167,0.15986 -0.234266,0.0524 -0.487825,0.0524 -0.465777,0 -0.862651,-0.14331 z m 5.34954,0.0744 h -0.868164 v -0.42995 h -0.01378 q -0.322461,0.49885 -0.862651,0.49885 -0.981163,0 -0.981163,-1.18787 v -1.70325 h 0.868164 v 1.62608 q 0,0.59807 0.474045,0.59807 0.234266,0 0.374826,-0.16261 0.140559,-0.16536 0.140559,-0.44648 v -1.61506 h 0.868164 z m 2.574174,-2.03674 q -0.157096,-0.0854 -0.366558,-0.0854 -0.283876,0 -0.443728,0.20946 -0.159852,0.20671 -0.159852,0.565 v 1.34772 h -0.87092 v -2.82222 h 0.87092 v 0.52365 h 0.01102 q 0.206706,-0.57326 0.74414,-0.57326 0.137804,0 0.214974,0.0331 z m 2.918682,0.87368 h -1.841057 q 0.0441,0.6146 0.774457,0.6146 0.465776,0 0.818554,-0.22049 v 0.62839 q -0.391363,0.20946 -1.016992,0.20946 -0.683506,0 -1.061088,-0.37758 -0.377583,-0.38034 -0.377583,-1.05833 0,-0.7028 0.407899,-1.11346 0.407899,-0.41065 1.003211,-0.41065 0.617361,0 0.953602,0.36656 0.338997,0.36655 0.338997,0.99494 z m -0.807529,-0.53468 q 0,-0.60634 -0.490582,-0.60634 -0.209461,0 -0.363801,0.17363 -0.151585,0.17364 -0.184657,0.43271 z m 1.141014,1.62333 v -0.70556 q 0.214974,0.12954 0.427191,0.19293 0.214974,0.0634 0.405143,0.0634 0.231511,0 0.363802,-0.0634 0.135048,-0.0634 0.135048,-0.19293 0,-0.0827 -0.06063,-0.1378 -0.06063,-0.0551 -0.157096,-0.0965 -0.09371,-0.0413 -0.206706,-0.0744 -0.112999,-0.0331 -0.217729,-0.0744 -0.168121,-0.0634 -0.297656,-0.13505 -0.12678,-0.0744 -0.214974,-0.17088 -0.08544,-0.0965 -0.132292,-0.22324 -0.0441,-0.12678 -0.0441,-0.30041 0,-0.23702 0.101975,-0.4079 0.104731,-0.17088 0.275607,-0.27836 0.173633,-0.11025 0.394119,-0.15986 0.223242,-0.0524 0.46302,-0.0524 0.187413,0 0.380339,0.0303 0.192925,0.0276 0.380338,0.0827 v 0.67248 q -0.165365,-0.0965 -0.355534,-0.14332 -0.187413,-0.0496 -0.369314,-0.0496 -0.08544,0 -0.162608,0.0165 -0.07441,0.0138 -0.132292,0.0441 -0.05788,0.0276 -0.09095,0.0744 -0.03307,0.0441 -0.03307,0.10198 0,0.0772 0.04961,0.13229 0.04961,0.0551 0.129536,0.0965 0.07993,0.0386 0.176389,0.0717 0.09922,0.0303 0.195681,0.0634 0.173632,0.0606 0.314192,0.13229 0.14056,0.0717 0.239779,0.16812 0.101974,0.0965 0.15434,0.226 0.05512,0.12953 0.05512,0.30868 0,0.2508 -0.110243,0.42995 -0.107486,0.17638 -0.289387,0.28938 -0.179145,0.11025 -0.416168,0.15986 -0.234266,0.0524 -0.487825,0.0524 -0.465776,0 -0.862651,-0.14331 z"
       id="text1-1"
       style="-inkscape-font-specification:'Segoe UI, Bold';fill:#4d4d4d;stroke-width:0.264583"
       aria-label="Measures" /><g
       id="g16"
       transform="translate(46.044678,54.534006)"><path
         id="path4"
         style="fill:#ff0000;stroke-width:0.826823"
         d="m 39.883367,139.86954 c -0.91201,0 -1.65364,0.74167 -1.65364,1.65365 0,0.91198 0.74163,1.65365 1.65364,1.65365 0.91201,0 1.65365,-0.74167 1.65365,-1.65365 0,-0.91198 -0.74164,-1.65365 -1.65365,-1.65365 z m 8.74753,-7.95403 c 0.21147,0 0.42294,0.0808 0.58459,0.24246 0.3233,0.32245 0.3233,0.84582 0,1.1691 l -6.49669,6.49543 0.0722,0.12539 c 0.25484,0.46859 0.39969,1.00531 0.39969,1.5753 0,1.82397 -1.48327,3.30729 -3.30729,3.30729 -1.82402,0 -3.307293,-1.48332 -3.307293,-3.30729 0,-1.82397 1.483273,-3.30729 3.307293,-3.30729 0.57,0 1.10673,0.14485 1.57532,0.39969 l 0.0817,0.047 6.50591,-6.50465 c 0.16166,-0.16164 0.37312,-0.24246 0.58459,-0.24246 z" /><path
         id="path1"
         style="stroke-width:0.826823"
         d="m 49.006179,140.7713 c 0.45641,0 0.82682,0.37042 0.82682,0.82683 0,0.4564 -0.37041,0.82682 -0.82682,0.82682 -0.45641,0 -0.82682,-0.37042 -0.82682,-0.82682 0,-0.45641 0.37041,-0.82683 0.82682,-0.82683 z m -18.1901,0 c 0.4564,0 0.82682,0.37042 0.82682,0.82683 0,0.4564 -0.37042,0.82682 -0.82682,0.82682 -0.45641,0 -0.82683,-0.37042 -0.82683,-0.82682 0,-0.45641 0.37042,-0.82683 0.82683,-0.82683 z m 17.01516,-3.93981 c 0.45641,0 0.82683,0.37042 0.82683,0.82683 0,0.4564 -0.37042,0.82682 -0.82683,0.82682 -0.4564,0 -0.82682,-0.37042 -0.82682,-0.82682 0,-0.45641 0.37042,-0.82683 0.82682,-0.82683 z m -15.36152,-0.1943 c 0.45641,0 0.82682,0.37042 0.82682,0.82682 0,0.45641 -0.37041,0.82682 -0.82682,0.82682 -0.45641,0 -0.82682,-0.37041 -0.82682,-0.82682 0,-0.4564 0.37041,-0.82682 0.82682,-0.82682 z m 2.48047,-3.30729 c 0.45641,0 0.82682,0.37041 0.82682,0.82682 0,0.45641 -0.37041,0.82682 -0.82682,0.82682 -0.45641,0 -0.82682,-0.37041 -0.82682,-0.82682 0,-0.45641 0.37041,-0.82682 0.82682,-0.82682 z m 9.53825,-0.51263 c 0.4564,0 0.82682,0.37042 0.82682,0.82683 0,0.4564 -0.37042,0.82682 -0.82682,0.82682 -0.45641,0 -0.82683,-0.37042 -0.82683,-0.82682 0,-0.45641 0.37042,-0.82683 0.82683,-0.82683 z m -4.57731,-1.14102 c 0.4564,0 0.82682,0.37042 0.82682,0.82682 0,0.45641 -0.37042,0.82683 -0.82682,0.82683 -0.45641,0 -0.82683,-0.37042 -0.82683,-0.82683 0,-0.4564 0.37042,-0.82682 0.82683,-0.82682 z m 0,-3.30728 c 2.15635,0 4.29617,0.53082 6.18959,1.53458 0.40349,0.21415 0.55728,0.71437 0.34313,1.11786 -0.21332,0.40349 -0.71437,0.55728 -1.11786,0.34313 -1.6553,-0.87808 -3.52805,-1.34193 -5.41486,-1.34193 -6.38308,0 -11.57552,5.19245 -11.57552,11.57552 0,6.38307 5.19244,11.57552 11.57552,11.57552 6.38307,0 11.57552,-5.19245 11.57552,-11.57552 0,-1.87771 -0.45972,-3.74137 -1.32871,-5.38923 -0.21332,-0.40432 -0.0587,-0.90454 0.34562,-1.11704 0.40514,-0.21332 0.90289,-0.0579 1.11703,0.34479 0.99384,1.88515 1.5197,4.01505 1.5197,6.16148 0,7.29423 -5.93493,13.22917 -13.22916,13.22917 -7.29423,0 -13.229169,-5.93494 -13.229169,-13.22917 0,-7.29423 5.934939,-13.22916 13.229169,-13.22916 z" /></g></g></svg>
